<svg width="24" height="24" viewBox="0 0 24 24" fill="none" xmlns="http://www.w3.org/2000/svg">
<g id="eva:color-palette-outline">
<path id="Vector" d="M19.5398 5.0799C18.5372 4.08432 17.3458 3.29904 16.0355 2.77014C14.7253 2.24124 13.3226 1.97937 11.9098 1.9999C9.25763 1.99327 6.71146 3.04048 4.83141 4.91115C2.95135 6.78183 1.89143 9.32274 1.8848 11.9749C1.87817 14.6271 2.92538 17.1732 4.79605 19.0533C6.66673 20.9333 9.20763 21.9933 11.8598 21.9999C12.4313 22.0096 12.9898 21.8293 13.4477 21.4872C13.9057 21.1451 14.237 20.6607 14.3898 20.1099C14.4872 19.7121 14.4862 19.2967 14.3869 18.8994C14.2875 18.5021 14.0929 18.135 13.8198 17.8299C13.7566 17.758 13.7154 17.6696 13.7011 17.575C13.6867 17.4804 13.6998 17.3837 13.7387 17.2963C13.7777 17.2089 13.8409 17.1345 13.9208 17.082C14.0008 17.0295 14.0941 17.001 14.1898 16.9999H15.8398C17.3927 17.0072 18.8909 16.4266 20.0336 15.3749C21.1762 14.3232 21.8786 12.8781 21.9998 11.3299C22.037 10.1755 21.838 9.02569 21.415 7.95096C20.992 6.87622 20.3539 5.89923 19.5398 5.0799ZM15.8798 14.9999H14.2298C13.7479 14.9972 13.2756 15.1343 12.8701 15.3947C12.4647 15.6551 12.1435 16.0276 11.9455 16.4669C11.7476 16.9063 11.6813 17.3936 11.7549 17.8698C11.8284 18.3461 12.0385 18.7907 12.3598 19.1499C12.4224 19.213 12.4666 19.292 12.4877 19.3783C12.5088 19.4646 12.5061 19.555 12.4798 19.6399C12.4298 19.8499 12.1998 19.9799 11.8898 19.9999C10.7541 19.9853 9.63456 19.7291 8.60558 19.2483C7.57661 18.7675 6.66181 18.0731 5.92204 17.2113C5.18226 16.3495 4.63447 15.34 4.31511 14.2501C3.99574 13.1601 3.91212 12.0147 4.0698 10.8899C4.35496 8.99985 5.29935 7.27153 6.73593 6.01063C8.17251 4.74974 10.0087 4.0375 11.9198 3.9999H11.9998C13.1306 3.98509 14.253 4.19691 15.3007 4.62284C16.3483 5.04878 17.3001 5.68021 18.0998 6.4799C18.7238 7.1043 19.2141 7.84925 19.5407 8.66934C19.8674 9.48943 20.0236 10.3675 19.9998 11.2499C19.8963 12.273 19.4184 13.2217 18.6579 13.9139C17.8974 14.606 16.9081 14.9928 15.8798 14.9999Z" fill="black"/>
<path id="Vector_2" d="M12 8C12.8284 8 13.5 7.32843 13.5 6.5C13.5 5.67157 12.8284 5 12 5C11.1716 5 10.5 5.67157 10.5 6.5C10.5 7.32843 11.1716 8 12 8Z" fill="black"/>
<path id="Vector_3" d="M15.2501 7.19992C14.9933 7.34828 14.7862 7.56945 14.6551 7.83548C14.5239 8.1015 14.4745 8.40044 14.5132 8.69451C14.552 8.98857 14.677 9.26456 14.8725 9.48759C15.068 9.71063 15.3253 9.87069 15.6117 9.94754C15.8982 10.0244 16.201 10.0146 16.4819 9.9194C16.7628 9.82419 17.0092 9.64783 17.1899 9.41263C17.3706 9.17743 17.4775 8.89394 17.4971 8.59799C17.5168 8.30204 17.4482 8.00691 17.3001 7.74992C17.2017 7.57912 17.0706 7.42939 16.9143 7.3093C16.758 7.1892 16.5795 7.1011 16.3891 7.05001C16.1987 6.99893 16.0001 6.98588 15.8047 7.0116C15.6093 7.03733 15.4208 7.10132 15.2501 7.19992ZM8.75012 7.19992C8.49312 7.05184 8.198 6.98328 7.90205 7.0029C7.6061 7.02251 7.3226 7.12943 7.0874 7.31013C6.8522 7.49083 6.67585 7.7372 6.58064 8.01811C6.48543 8.29901 6.47563 8.60184 6.55249 8.88831C6.62935 9.17478 6.78941 9.43203 7.01244 9.62755C7.23547 9.82307 7.51146 9.94809 7.80553 9.98679C8.0996 10.0255 8.39853 9.97614 8.66456 9.84499C8.93059 9.71383 9.15176 9.50675 9.30012 9.24992C9.39872 9.07923 9.46271 8.89078 9.48843 8.69534C9.51415 8.4999 9.5011 8.30131 9.45002 8.11092C9.39894 7.92053 9.31083 7.74207 9.19074 7.58576C9.07064 7.42944 8.92092 7.29833 8.75012 7.19992ZM6.16012 11.2599C5.91409 11.426 5.72288 11.6614 5.61071 11.9363C5.49854 12.2112 5.47045 12.5131 5.53 12.8039C5.58954 13.0948 5.73405 13.3614 5.94522 13.5701C6.15639 13.7787 6.42472 13.92 6.71624 13.9761C7.00776 14.0321 7.30937 14.0004 7.58286 13.885C7.85636 13.7695 8.08945 13.5755 8.25262 13.3275C8.41578 13.0795 8.5017 12.7887 8.49947 12.4918C8.49725 12.195 8.40699 11.9054 8.24012 11.6599C8.13049 11.4963 7.98951 11.356 7.82532 11.2472C7.66114 11.1383 7.477 11.0632 7.28357 11.026C7.09014 10.9888 6.89126 10.9903 6.69842 11.0304C6.50558 11.0706 6.32262 11.1486 6.16012 11.2599Z" fill="black"/>
</g>
</svg>
