<svg width="24" height="24" viewBox="0 0 24 24" fill="none" xmlns="http://www.w3.org/2000/svg">
<g id="material-symbols:developer-mode-tv-outline">
<path id="Vector" d="M2 7V5C2 4.45 2.196 3.97933 2.588 3.588C2.98 3.19667 3.45067 3.00067 4 3H20C20.55 3 21.021 3.196 21.413 3.588C21.805 3.98 22.0007 4.45067 22 5V7H20V5H4V7H2ZM8 21V19H4C3.45 19 2.97933 18.8043 2.588 18.413C2.19667 18.0217 2.00067 17.5507 2 17V15H4V17H20V15H22V17C22 17.55 21.8043 18.021 21.413 18.413C21.0217 18.805 20.5507 19.0007 20 19H16V21H8ZM4.8 11L7.4 8.4L6 7L2 11L6 15L7.4 13.6L4.8 11ZM19.2 11L16.6 13.6L18 15L22 11L18 7L16.6 8.4L19.2 11Z" fill="black"/>
</g>
</svg>
