<svg width="24" height="24" viewBox="0 0 24 24" fill="none" xmlns="http://www.w3.org/2000/svg">
<g id="icomoon-free:google" clip-path="url(#clip0_131_181)">
<path id="Vector" d="M12.2387 10.284V14.4H19.0442C18.7682 16.167 16.9862 19.575 12.2387 19.575C8.14224 19.575 4.80023 16.182 4.80023 12C4.80023 7.81804 8.14224 4.42503 12.2387 4.42503C14.5682 4.42503 16.1297 5.41954 17.0207 6.27604L20.2787 3.13953C18.1877 1.18053 15.4787 -0.00146484 12.2402 -0.00146484C5.60723 -0.00146484 0.240234 5.36554 0.240234 11.9985C0.240234 18.6315 5.60723 23.9985 12.2402 23.9985C19.1642 23.9985 23.7617 19.128 23.7617 12.2745C23.7617 11.487 23.6777 10.887 23.5742 10.287L12.2387 10.284Z" fill="#999999"/>
</g>
<defs>
<clipPath id="clip0_131_181">
<rect width="24" height="24" fill="white"/>
</clipPath>
</defs>
</svg>
