<svg width="24" height="24" viewBox="0 0 24 24" fill="none" xmlns="http://www.w3.org/2000/svg">
<g id="tabler:brand-meta">
<path id="Vector" d="M12.0001 10.174C13.7661 7.39067 15.3154 5.99933 16.6481 6C18.6481 6 19.9111 8.213 20.6481 11.217C21.3521 14.086 21.1481 18 18.6481 18C17.5341 18 16.0001 16.435 14.5001 14.348C13.5455 13.033 12.7089 11.6362 12.0001 10.174ZM12.0001 10.174C10.2341 7.39067 8.68478 5.99933 7.35212 6C5.35212 6 4.08911 8.213 3.35211 11.217C2.64811 14.086 2.85211 18 5.35211 18C6.46611 18 8.00011 16.435 9.50011 14.348C10.5001 12.9567 11.3334 11.5653 12.0001 10.174Z" stroke="#999999" stroke-width="2" stroke-linecap="round" stroke-linejoin="round"/>
</g>
</svg>
