<svg width="24" height="24" viewBox="0 0 24 24" fill="none" xmlns="http://www.w3.org/2000/svg">
<g id="material-symbols:no-photography-outline">
<path id="Vector" d="M21.9998 19.125L19.9998 17.125V6.99995H15.9498L14.1248 4.99995H9.8748L8.9248 6.04995L7.4998 4.62495L8.9998 2.99995H14.9998L16.8498 4.99995H19.9998C20.5498 4.99995 21.0208 5.19595 21.4128 5.58795C21.8048 5.97995 22.0005 6.45062 21.9998 6.99995V19.125ZM3.9998 21C3.4498 21 2.97914 20.8043 2.5878 20.413C2.19647 20.0216 2.00047 19.5506 1.9998 19V6.99995C1.9998 6.44995 2.1958 5.97928 2.5878 5.58795C2.9798 5.19662 3.45047 5.00062 3.9998 4.99995H5.0248L7.0248 6.99995H3.9998V19H19.0248L21.0248 21H3.9998ZM15.6498 15.625C15.2331 16.1916 14.7125 16.646 14.0878 16.988C13.4631 17.33 12.7671 17.5006 11.9998 17.5C10.7498 17.5 9.68747 17.0626 8.8128 16.188C7.93814 15.3133 7.50047 14.2506 7.4998 13C7.4998 12.2333 7.6708 11.5376 8.0128 10.913C8.3548 10.2883 8.8088 9.76728 9.3748 9.34995L10.8248 10.8C10.4248 11.0166 10.1041 11.3166 9.8628 11.7C9.62147 12.0833 9.50047 12.5166 9.4998 13C9.4998 13.7 9.74147 14.2916 10.2248 14.775C10.7081 15.2583 11.2998 15.5 11.9998 15.5C12.4831 15.5 12.9165 15.379 13.2998 15.137C13.6831 14.895 13.9831 14.5743 14.1998 14.175L15.6498 15.625ZM15.1998 9.79995C15.6165 10.2 15.9375 10.675 16.1628 11.225C16.3881 11.775 16.5005 12.3666 16.4998 13V13.3C16.4998 13.4 16.4915 13.5 16.4748 13.6L11.3998 8.52495C11.4998 8.50828 11.5998 8.49995 11.6998 8.49995H11.9998C12.6331 8.49995 13.2248 8.61262 13.7748 8.83795C14.3248 9.06328 14.7998 9.38395 15.1998 9.79995ZM20.4748 23.2999L0.674805 3.49995L2.0998 2.07495L21.8998 21.875L20.4748 23.2999Z" fill="black"/>
</g>
</svg>
